# Blender v2.80 (sub 75) OBJ File: ''
# www.blender.org
o pool_pool_Plane.006
v -0.500000 0.008095 -0.366797
v -0.500000 0.002865 -0.384370
v -0.500000 -0.073719 -0.297000
v 0.500000 0.008095 -0.366797
v 0.500000 0.002865 -0.384369
v 0.500000 -0.073719 -0.297000
v -0.500000 -0.073719 -0.500000
v -0.500000 -0.026551 -0.297000
v -0.500000 -0.021775 -0.288114
v -0.500000 -0.009455 -0.284277
v -0.500000 0.002865 -0.288114
v -0.500000 0.008095 -0.300000
v -0.500000 0.011673 -0.333148
v -0.500000 0.002865 -0.496800
v -0.500000 0.000000 -0.500000
v 0.500000 -0.073719 -0.500000
v 0.500000 -0.026551 -0.297000
v 0.500000 -0.021775 -0.288114
v 0.500000 -0.009455 -0.284277
v 0.500000 0.002865 -0.288114
v 0.500000 0.008095 -0.300000
v 0.500000 0.011673 -0.333147
v 0.500000 0.002865 -0.496800
v 0.500000 0.000000 -0.500000
v 0.000000 0.002865 -0.496800
v -0.200000 0.000000 -0.500000
v -0.200000 0.002865 -0.496800
v 0.000000 -0.073719 -0.297000
v 0.100000 -0.026551 -0.297000
v 0.000000 -0.026551 -0.297000
v 0.100000 -0.073719 -0.297000
v 0.200000 -0.026551 -0.297000
v 0.200000 -0.073719 -0.297000
v 0.300000 -0.026551 -0.297000
v 0.300000 -0.073719 -0.297000
v 0.400000 -0.026551 -0.297000
v 0.400000 -0.073719 -0.297000
v 0.500000 -0.026551 -0.297000
v 0.200000 -0.009455 -0.284277
v 0.400000 0.002865 -0.288114
v 0.200000 0.002865 -0.288114
v 0.400000 0.011673 -0.333147
v 0.200000 0.008095 -0.366797
v 0.200000 0.011673 -0.333148
v 0.400000 0.008095 -0.366797
v 0.200000 0.002865 -0.384370
v 0.400000 0.008095 -0.300000
v 0.200000 0.008095 -0.300000
v 0.400000 0.002865 -0.384369
v 0.200000 0.002865 -0.496800
v 0.400000 -0.021775 -0.288114
v 0.200000 -0.021775 -0.288114
v 0.200000 -0.026551 -0.297000
v 0.000000 -0.009455 -0.284277
v 0.000000 0.002865 -0.288114
v 0.000000 0.011673 -0.333148
v 0.000000 0.008095 -0.366797
v 0.000000 0.002865 -0.384370
v 0.000000 0.008095 -0.300000
v 0.000000 0.002865 -0.496800
v 0.000000 -0.021775 -0.288114
v 0.000000 -0.026551 -0.297000
v 0.000000 0.002865 -0.384370
v -0.200000 0.002865 -0.496800
v -0.200000 0.002865 -0.384370
v -0.200000 -0.009455 -0.284277
v 0.000000 0.002865 -0.288114
v -0.200000 0.002865 -0.288114
v 0.000000 0.008095 -0.366797
v -0.200000 0.008095 -0.366797
v -0.200000 0.011673 -0.333148
v 0.000000 0.008095 -0.300000
v -0.200000 0.008095 -0.300000
v 0.000000 -0.021775 -0.288114
v -0.200000 -0.021775 -0.288114
v -0.200000 -0.026551 -0.297000
v 0.200000 0.002865 -0.496800
v 0.400000 0.000000 -0.500000
v 0.200000 0.000000 -0.500000
v 0.000000 0.000000 -0.500000
v 0.000000 0.002865 -0.496800
v -0.100000 -0.073719 -0.297000
v 0.000000 -0.026551 -0.297000
v -0.100000 -0.026551 -0.297000
v 0.400000 0.000000 -0.500000
v 0.200000 -0.073719 -0.500000
v 0.200000 0.000000 -0.500000
v 0.000000 -0.073719 -0.500000
v 0.000000 0.000000 -0.500000
v -0.200000 -0.073719 -0.297000
v -0.200000 -0.026551 -0.297000
v 0.400000 -0.026551 -0.297000
v 0.500000 -0.021775 -0.288114
v 0.500000 0.002865 -0.288114
v 0.400000 -0.009455 -0.284277
v 0.500000 0.002865 -0.384369
v 0.400000 0.002865 -0.496800
v 0.500000 0.008095 -0.300000
v 0.500000 0.008095 -0.366797
v 0.500000 0.011673 -0.333147
v -0.200000 0.000000 -0.500000
v -0.400000 -0.073719 -0.500000
v -0.400000 0.000000 -0.500000
v -0.200000 0.002865 -0.496800
v -0.400000 0.000000 -0.500000
v -0.400000 0.002865 -0.496800
v -0.200000 0.002865 -0.384370
v -0.400000 0.002865 -0.496800
v -0.400000 0.002865 -0.384370
v -0.400000 -0.009455 -0.284277
v -0.200000 0.002865 -0.288114
v -0.400000 0.002865 -0.288114
v -0.200000 0.008095 -0.366797
v -0.400000 0.008095 -0.366797
v -0.400000 0.011673 -0.333148
v -0.400000 0.008095 -0.300000
v -0.200000 0.011673 -0.333148
v -0.200000 0.008095 -0.300000
v -0.200000 -0.021775 -0.288114
v -0.400000 -0.021775 -0.288114
v -0.400000 -0.026551 -0.297000
v -0.300000 -0.073719 -0.297000
v -0.200000 -0.026551 -0.297000
v -0.300000 -0.026551 -0.297000
v -0.400000 -0.073719 -0.297000
v -0.400000 -0.026551 -0.297000
v -0.200000 -0.073719 -0.500000
v -0.200000 0.000000 -0.500000
v -0.400000 0.002865 -0.384370
v -0.500000 0.002865 -0.496800
v -0.500000 0.002865 -0.384370
v -0.500000 -0.009455 -0.284277
v -0.400000 0.002865 -0.288114
v -0.500000 0.002865 -0.288114
v -0.400000 0.008095 -0.366797
v -0.500000 0.008095 -0.366797
v -0.500000 0.011673 -0.333148
v -0.400000 0.008095 -0.300000
v -0.500000 0.008095 -0.300000
v -0.400000 -0.021775 -0.288114
v -0.500000 -0.021775 -0.288114
v -0.500000 -0.026551 -0.297000
v -0.500000 -0.073719 -0.297000
v -0.400000 -0.026551 -0.297000
v -0.500000 -0.026551 -0.297000
v -0.500000 -0.073719 -0.500000
v -0.500000 0.000000 -0.500000
v -0.400000 0.002865 -0.496800
v -0.500000 0.000000 -0.500000
v -0.500000 0.002865 -0.496800
v 0.500000 0.000000 -0.500000
v 0.400000 -0.073719 -0.500000
v 0.500000 0.002865 -0.496800
v 0.400000 0.002865 -0.496800
v 0.000000 0.000000 -0.500000
v 0.500000 -0.073719 -0.297000
v 0.000000 0.002865 -0.496800
v 0.000000 -0.009455 -0.284277
v 0.000000 0.011673 -0.333148
v 0.000000 -0.026551 -0.297000
v 0.000000 -0.073719 -0.297000
v 0.500000 -0.026551 -0.297000
v 0.500000 -0.009455 -0.284277
v 0.500000 0.002865 -0.496800
v -0.200000 -0.073719 -0.500000
v -0.200000 0.000000 -0.500000
v -0.200000 0.002865 -0.496800
v -0.200000 -0.009455 -0.284277
v -0.200000 -0.026551 -0.297000
v -0.200000 -0.073719 -0.297000
v -0.400000 0.002865 -0.496800
v -0.400000 -0.009455 -0.284277
v -0.400000 0.011673 -0.333148
v -0.400000 -0.026551 -0.297000
v -0.400000 -0.073719 -0.297000
v -0.400000 0.000000 -0.500000
v 0.500000 -0.073719 -0.500000
v 0.500000 0.000000 -0.500000
v 0.400000 -0.000000 0.500000
v 0.400000 0.002865 0.496800
v -0.400000 0.000000 -0.500000
v -0.400000 0.002865 -0.496800
vt 0.987851 0.741942
vt 0.983089 0.773939
vt 0.913365 0.614852
vt 0.987851 0.741942
vt 0.983089 0.773939
vt 0.913365 0.614852
vt 0.913365 0.984486
vt 0.956308 0.614852
vt 0.960656 0.598672
vt 0.971873 0.591685
vt 0.983089 0.598672
vt 0.987850 0.620314
vt 0.991108 0.680671
vt 0.983089 0.978660
vt 0.980481 0.984486
vt 0.913365 0.984486
vt 0.956308 0.614852
vt 0.960656 0.598672
vt 0.971873 0.591685
vt 0.983089 0.598672
vt 0.987850 0.620314
vt 0.991108 0.680671
vt 0.983089 0.978660
vt 0.980481 0.984486
vt 0.372243 0.976339
vt 0.004986 0.992156
vt 0.004986 0.976336
vt 0.988432 0.416168
vt 0.897847 0.010874
vt 0.897847 0.416168
vt 0.988432 0.416168
vt 0.897847 0.010874
vt 0.897847 0.416168
vt 0.988432 0.416168
vt 0.897847 0.010874
vt 0.897847 0.416168
vt 0.988432 0.416168
vt 0.897847 0.010874
vt 0.897847 0.416168
vt 0.988432 0.416168
vt 0.897847 0.010874
vt 0.897847 0.416168
vt 0.004988 0.138563
vt 0.372245 0.186089
vt 0.004988 0.186083
vt 0.372245 0.364294
vt 0.004987 0.490150
vt 0.004987 0.364290
vt 0.372244 0.490154
vt 0.004987 0.562302
vt 0.372245 0.240254
vt 0.004987 0.240249
vt 0.372244 0.562305
vt 0.004986 0.976336
vt 0.372245 0.091049
vt 0.004988 0.091043
vt 0.004988 0.053895
vt 0.004988 0.138563
vt 0.372245 0.186089
vt 0.004988 0.186083
vt 0.004987 0.364290
vt 0.372244 0.490154
vt 0.004987 0.490150
vt 0.004987 0.562302
vt 0.372245 0.240254
vt 0.004987 0.240249
vt 0.372244 0.562305
vt 0.004986 0.976336
vt 0.372245 0.091049
vt 0.004988 0.091043
vt 0.004988 0.053895
vt 0.372244 0.562305
vt 0.004986 0.976336
vt 0.004987 0.562302
vt 0.004988 0.138563
vt 0.372245 0.186089
vt 0.004988 0.186083
vt 0.372244 0.490154
vt 0.004987 0.490150
vt 0.004987 0.364290
vt 0.372245 0.240254
vt 0.004987 0.240249
vt 0.372245 0.091049
vt 0.004988 0.091043
vt 0.004988 0.053895
vt 0.004986 0.976336
vt 0.372243 0.992156
vt 0.004986 0.992156
vt 0.372243 0.976339
vt 0.004986 0.992156
vt 0.004986 0.976336
vt 0.988432 0.416168
vt 0.897847 0.010874
vt 0.897847 0.416168
vt 0.871312 0.330734
vt 0.791666 0.013007
vt 0.871312 0.013007
vt 0.871312 0.330734
vt 0.791666 0.013007
vt 0.871312 0.013007
vt 0.988432 0.416168
vt 0.897847 0.010874
vt 0.897847 0.416168
vt 0.004988 0.053895
vt 0.188617 0.091046
vt 0.004988 0.091043
vt 0.188616 0.186086
vt 0.004987 0.240249
vt 0.004988 0.186083
vt 0.004988 0.138563
vt 0.188615 0.562303
vt 0.004986 0.976336
vt 0.004987 0.562302
vt 0.188616 0.240251
vt 0.004987 0.364290
vt 0.188615 0.490152
vt 0.004987 0.490150
vt 0.188616 0.364292
vt 0.871312 0.330734
vt 0.791666 0.013007
vt 0.871312 0.013007
vt 0.372243 0.976339
vt 0.004986 0.992156
vt 0.004986 0.976336
vt 0.372244 0.562305
vt 0.004986 0.976336
vt 0.004987 0.562302
vt 0.004988 0.138563
vt 0.372245 0.186089
vt 0.004988 0.186083
vt 0.372244 0.490154
vt 0.004987 0.490150
vt 0.004987 0.364290
vt 0.004987 0.240249
vt 0.372245 0.364294
vt 0.372245 0.240254
vt 0.372245 0.091049
vt 0.004988 0.091043
vt 0.004988 0.053895
vt 0.988432 0.416168
vt 0.897847 0.010874
vt 0.897847 0.416168
vt 0.988432 0.416168
vt 0.897847 0.010874
vt 0.897847 0.416168
vt 0.871312 0.330734
vt 0.791666 0.013007
vt 0.871312 0.013007
vt 0.372244 0.562305
vt 0.188614 0.976337
vt 0.188615 0.562303
vt 0.188617 0.138566
vt 0.372245 0.186089
vt 0.188616 0.186086
vt 0.372244 0.490154
vt 0.188615 0.490152
vt 0.188616 0.364292
vt 0.372245 0.240254
vt 0.188616 0.240251
vt 0.372245 0.091049
vt 0.188617 0.091046
vt 0.188617 0.053897
vt 0.988432 0.416168
vt 0.897847 0.010874
vt 0.897847 0.416168
vt 0.871312 0.330734
vt 0.791666 0.171870
vt 0.871312 0.171870
vt 0.372243 0.976339
vt 0.188614 0.992156
vt 0.188614 0.976337
vt 0.871312 0.171870
vt 0.791666 0.013007
vt 0.871312 0.013007
vt 0.188614 0.976337
vt 0.004986 0.992156
vt 0.004986 0.976336
vt 0.372243 0.992156
vt 0.988432 0.010874
vt 0.988432 0.010874
vt 0.988432 0.010874
vt 0.988432 0.010874
vt 0.988432 0.010874
vt 0.372245 0.138569
vt 0.372243 0.976339
vt 0.372245 0.053900
vt 0.372245 0.138569
vt 0.372245 0.364294
vt 0.372243 0.976339
vt 0.372245 0.053900
vt 0.372243 0.976339
vt 0.372245 0.138569
vt 0.372245 0.364294
vt 0.372245 0.053900
vt 0.372243 0.976339
vt 0.372243 0.992156
vt 0.988432 0.010874
vt 0.791666 0.330734
vt 0.791666 0.330734
vt 0.988432 0.010874
vt 0.188617 0.053897
vt 0.188617 0.138566
vt 0.188614 0.976337
vt 0.791666 0.330734
vt 0.372243 0.992156
vt 0.372243 0.976339
vt 0.372245 0.138569
vt 0.372245 0.053900
vt 0.988432 0.010874
vt 0.988432 0.010874
vt 0.791666 0.330734
vt 0.372243 0.976339
vt 0.372245 0.138569
vt 0.372245 0.364294
vt 0.372245 0.053900
vt 0.988432 0.010874
vt 0.791666 0.330734
vt 0.372243 0.992156
vt 0.791666 0.171870
vt 0.188614 0.992156
vn -1.0000 0.0000 0.0000
vn 0.0000 0.7450 -0.6670
vn 0.0000 0.0000 1.0000
vn 0.0000 0.6662 0.7458
vn -0.0000 1.0000 0.0008
vn 0.0000 0.9805 -0.1963
vn 0.0000 0.9896 -0.1441
vn -0.0000 0.9661 0.2581
vn -0.0000 1.0000 0.0000
vn 0.0000 -0.6364 0.7714
vn 0.0000 -0.8808 0.4734
vn 0.0000 0.0000 -1.0000
s 1
f 1/1/1 2/2/1 3/3/1
s 2
f 4/4/1 5/5/1 6/6/1
s 3
f 7/7/1 3/3/1 2/2/1
s 4
f 8/8/1 9/9/1 10/10/1
s 5
f 10/10/1 11/11/1 12/12/1
s 6
f 12/12/1 13/13/1 8/8/1
s 7
f 2/2/1 14/14/1 7/7/1
s 8
f 13/13/1 1/1/1 8/8/1
s 9
f 8/8/1 10/10/1 12/12/1
s 10
f 15/15/1 7/7/1 14/14/1
s 11
f 8/8/1 1/1/1 3/3/1
s 12
f 16/16/1 6/6/1 5/5/1
s 13
f 17/17/1 18/18/1 19/19/1
s 14
f 19/19/1 20/20/1 21/21/1
s 15
f 21/21/1 22/22/1 17/17/1
s 16
f 5/5/1 23/23/1 16/16/1
s 17
f 22/22/1 4/4/1 17/17/1
s 18
f 17/17/1 19/19/1 21/21/1
s 19
f 24/24/1 16/16/1 23/23/1
s 20
f 17/17/1 4/4/1 6/6/1
s 21
f 25/25/2 26/26/2 27/27/2
s 22
f 28/28/3 29/29/3 30/30/3
s 23
f 31/31/3 32/32/3 29/33/3
s 24
f 33/34/3 34/35/3 32/36/3
s 25
f 35/37/3 36/38/3 34/39/3
s 26
f 37/40/3 38/41/3 36/42/3
s 27
f 39/43/3 40/44/4 41/45/4
s 28
f 42/46/5 43/47/6 44/48/5
s 29
f 45/49/6 46/50/7 43/47/6
s 30
f 47/51/8 44/48/5 48/52/8
s 31
f 49/53/7 50/54/9 46/50/7
s 32
f 51/55/10 39/43/3 52/56/10
s 33
f 40/44/4 48/52/8 41/45/4
s 34
f 53/57/11 51/55/10 52/56/10
s 35
f 54/58/3 41/59/4 55/60/4
s 36
f 56/61/5 43/62/6 57/63/6
s 37
f 43/62/6 58/64/7 57/63/6
s 38
f 48/65/8 56/61/5 59/66/8
s 39
f 46/67/7 60/68/9 58/64/7
s 40
f 52/69/10 54/58/3 61/70/10
s 41
f 41/59/4 59/66/8 55/60/4
s 42
f 62/71/11 52/69/10 61/70/10
s 43
f 63/72/7 64/73/9 65/74/7
s 44
f 66/75/3 67/76/4 68/77/4
s 45
f 69/78/6 65/74/7 70/79/6
s 46
f 71/80/5 69/78/6 70/79/6
s 47
f 72/81/8 71/80/5 73/82/8
s 48
f 67/76/4 73/82/8 68/77/4
s 49
f 74/83/10 66/75/3 75/84/10
s 50
f 76/85/11 74/83/10 75/84/10
s 51
f 77/86/2 78/87/2 79/88/2
s 52
f 77/89/2 80/90/2 81/91/2
s 53
f 82/92/3 83/93/3 84/94/3
s 54
f 85/95/12 86/96/12 87/97/12
s 55
f 87/98/12 88/99/12 89/100/12
s 56
f 90/101/3 84/102/3 91/103/3
s 57
f 92/104/11 93/105/10 51/106/10
s 58
f 94/107/4 47/108/8 40/109/4
s 59
f 93/105/10 95/110/3 51/106/10
s 60
f 96/111/7 97/112/9 49/113/7
s 61
f 98/114/8 42/115/5 47/108/8
s 62
f 99/116/6 49/113/7 45/117/6
s 63
f 100/118/5 45/117/6 42/115/5
s 64
f 95/110/3 94/107/4 40/109/4
s 65
f 101/119/12 102/120/12 103/121/12
s 66
f 104/122/2 105/123/2 106/124/2
s 67
f 107/125/7 108/126/9 109/127/7
s 68
f 110/128/3 111/129/4 112/130/4
s 69
f 113/131/6 109/127/7 114/132/6
s 70
f 115/133/5 113/131/6 114/132/6
s 71
f 116/134/8 117/135/5 115/133/5
s 72
f 112/130/4 118/136/8 116/134/8
s 73
f 119/137/10 110/128/3 120/138/10
s 74
f 121/139/11 119/137/10 120/138/10
s 75
f 122/140/3 123/141/3 124/142/3
s 76
f 125/143/3 124/144/3 126/145/3
s 77
f 89/146/12 127/147/12 128/148/12
s 78
f 129/149/7 130/150/9 131/151/7
s 79
f 132/152/3 133/153/4 134/154/4
s 80
f 135/155/6 131/151/7 136/156/6
s 81
f 137/157/5 135/155/6 136/156/6
s 82
f 138/158/8 137/157/5 139/159/8
s 83
f 133/153/4 139/159/8 134/154/4
s 84
f 140/160/10 132/152/3 141/161/10
s 85
f 142/162/11 140/160/10 141/161/10
s 86
f 143/163/3 144/164/3 145/165/3
s 87
f 103/166/12 146/167/12 147/168/12
s 88
f 148/169/2 149/170/2 150/171/2
s 89
f 151/172/12 152/173/12 85/174/12
s 90
f 153/175/2 78/176/2 154/177/2
s 91
f 25/25/2 155/178/2 26/26/2
s 92
f 28/28/3 31/179/3 29/29/3
s 93
f 31/31/3 33/180/3 32/32/3
s 94
f 33/34/3 35/181/3 34/35/3
s 95
f 35/37/3 37/182/3 36/38/3
s 96
f 37/40/3 156/183/3 38/41/3
s 97
f 39/43/3 95/184/3 40/44/4
s 98
f 42/46/5 45/49/6 43/47/6
s 99
f 45/49/6 49/53/7 46/50/7
s 100
f 47/51/8 42/46/5 44/48/5
s 101
f 49/53/7 97/185/9 50/54/9
s 102
f 51/55/10 95/184/3 39/43/3
s 103
f 40/44/4 47/51/8 48/52/8
s 104
f 53/57/11 92/186/11 51/55/10
s 105
f 54/58/3 39/187/3 41/59/4
s 106
f 56/61/5 44/188/5 43/62/6
s 107
f 43/62/6 46/67/7 58/64/7
s 108
f 48/65/8 44/188/5 56/61/5
s 109
f 46/67/7 50/189/9 60/68/9
s 110
f 52/69/10 39/187/3 54/58/3
s 111
f 41/59/4 48/65/8 59/66/8
s 112
f 62/71/11 53/190/11 52/69/10
s 113
f 63/72/7 157/191/9 64/73/9
s 114
f 66/75/3 158/192/3 67/76/4
s 115
f 69/78/6 63/72/7 65/74/7
s 116
f 71/80/5 159/193/5 69/78/6
s 117
f 72/81/8 159/193/5 71/80/5
s 118
f 67/76/4 72/81/8 73/82/8
s 119
f 74/83/10 158/192/3 66/75/3
s 120
f 76/85/11 160/194/11 74/83/10
s 121
f 77/86/2 154/195/2 78/87/2
s 122
f 77/89/2 79/196/2 80/90/2
s 123
f 82/92/3 161/197/3 83/93/3
s 124
f 85/95/12 152/198/12 86/96/12
s 125
f 87/98/12 86/199/12 88/99/12
s 126
f 90/101/3 82/200/3 84/102/3
s 127
f 92/104/11 162/201/11 93/105/10
s 128
f 94/107/4 98/114/8 47/108/8
s 129
f 93/105/10 163/202/3 95/110/3
s 130
f 96/111/7 164/203/9 97/112/9
s 131
f 98/114/8 100/118/5 42/115/5
s 132
f 99/116/6 96/111/7 49/113/7
s 133
f 100/118/5 99/116/6 45/117/6
s 134
f 95/110/3 163/202/3 94/107/4
s 135
f 101/119/12 165/204/12 102/120/12
s 136
f 104/122/2 166/205/2 105/123/2
s 137
f 107/125/7 167/206/9 108/126/9
s 138
f 110/128/3 168/207/3 111/129/4
s 139
f 113/131/6 107/125/7 109/127/7
s 140
f 115/133/5 117/135/5 113/131/6
s 141
f 116/134/8 118/136/8 117/135/5
s 142
f 112/130/4 111/129/4 118/136/8
s 143
f 119/137/10 168/207/3 110/128/3
s 144
f 121/139/11 169/208/11 119/137/10
s 145
f 122/140/3 170/209/3 123/141/3
s 146
f 125/143/3 122/210/3 124/144/3
s 147
f 89/146/12 88/211/12 127/147/12
s 148
f 129/149/7 171/212/9 130/150/9
s 149
f 132/152/3 172/213/3 133/153/4
s 150
f 135/155/6 129/149/7 131/151/7
s 151
f 137/157/5 173/214/5 135/155/6
s 152
f 138/158/8 173/214/5 137/157/5
s 153
f 133/153/4 138/158/8 139/159/8
s 154
f 140/160/10 172/213/3 132/152/3
s 155
f 142/162/11 174/215/11 140/160/10
s 156
f 143/163/3 175/216/3 144/164/3
s 157
f 103/166/12 102/217/12 146/167/12
s 158
f 148/169/2 176/218/2 149/170/2
s 159
f 151/172/12 177/219/12 152/173/12
s 160
f 153/175/2 178/220/2 78/176/2
