# Blender v2.80 (sub 75) OBJ File: ''
# www.blender.org
mtllib poolcorner_hq_0.mtl
o pool_pool_Plane.004
v -0.499999 -0.009455 -0.284277
v -0.499999 0.000000 -0.300000
v -0.499999 -0.021775 -0.288115
v -0.300001 0.000000 -0.500000
v -0.284278 -0.009455 -0.500000
v -0.288115 -0.021775 -0.500000
v -0.499999 -0.073719 -0.500000
v -0.499999 -0.073719 -0.297000
v -0.499999 -0.026551 -0.297000
v -0.499999 0.002865 -0.288115
v -0.499999 0.000000 -0.500000
v -0.499999 0.008095 -0.300000
v -0.297001 -0.026550 -0.500000
v -0.297001 -0.073719 -0.500000
v -0.500001 -0.073719 -0.500000
v -0.500001 0.000000 -0.500000
v -0.300001 0.008095 -0.500000
v -0.288115 0.002865 -0.500000
v -0.399999 -0.021775 -0.288115
v -0.296999 -0.026551 -0.297000
v -0.288114 -0.021775 -0.288115
v -0.299999 0.008095 -0.300000
v -0.399999 0.002865 -0.288115
v -0.288114 0.002865 -0.288115
v -0.399999 -0.009455 -0.284278
v -0.284276 -0.009455 -0.284278
v -0.399999 -0.021775 -0.288115
v -0.499999 -0.026551 -0.297000
v -0.399999 -0.026551 -0.297000
v -0.399999 0.008095 -0.300000
v -0.499999 0.002865 -0.288115
v -0.399999 0.002865 -0.288115
v -0.399999 -0.009455 -0.284277
v -0.499999 -0.021775 -0.288115
v -0.296999 -0.026551 -0.297000
v -0.288114 -0.021775 -0.400000
v -0.288114 -0.021775 -0.288115
v -0.288114 0.002865 -0.400000
v -0.299999 0.008095 -0.300000
v -0.288114 0.002865 -0.288115
v -0.284276 -0.009455 -0.400000
v -0.284276 -0.009455 -0.284278
v -0.500000 -0.073719 -0.297000
v -0.400000 -0.026551 -0.297000
v -0.499999 -0.026551 -0.297000
v -0.399999 -0.073719 -0.297000
v -0.296999 -0.026551 -0.297000
v -0.399999 -0.026551 -0.297000
v -0.296999 -0.073719 -0.297000
v -0.296999 -0.026551 -0.400001
v -0.296999 -0.026551 -0.297001
v -0.296999 -0.073719 -0.400001
v -0.296999 -0.026551 -0.500001
v -0.296999 -0.026551 -0.400001
v -0.296999 -0.026551 -0.400000
v -0.288114 -0.021775 -0.500000
v -0.288114 -0.021775 -0.400000
v -0.288114 0.002865 -0.500000
v -0.299999 0.008095 -0.400000
v -0.288114 0.002865 -0.400000
v -0.284276 -0.009455 -0.400000
v -0.319498 0.023153 -0.319499
v -0.480501 0.023153 -0.480502
v -0.480501 0.023153 -0.319499
v -0.499999 0.011673 -0.300001
v -0.499999 0.000000 -0.500000
v -0.499999 0.000000 -0.300000
v -0.299999 0.000000 -0.500000
v -0.299999 0.011673 -0.300001
v -0.299999 0.000000 -0.300001
v -0.480501 0.023153 -0.480502
v -0.499999 0.011673 -0.500000
v -0.319498 0.023153 -0.480502
v -0.299999 0.011673 -0.500000
v -0.480501 0.023153 -0.480502
v -0.299999 0.011673 -0.500000
v -0.499999 0.011673 -0.500000
v -0.299999 0.011673 -0.300001
v -0.480501 0.023153 -0.319499
v -0.499999 0.011673 -0.300001
v -0.499999 0.000000 -0.500000
v -0.299999 0.000000 -0.500000
v -0.299999 0.000000 -0.300001
v -0.499999 0.000000 -0.300000
v -0.399999 -0.026551 -0.297000
v -0.399999 0.008095 -0.300000
v -0.499999 0.008095 -0.300000
v -0.499999 -0.009455 -0.284277
v -0.296999 -0.026551 -0.400000
v -0.299999 0.008095 -0.400000
v -0.399999 -0.073719 -0.297000
v -0.296999 -0.073719 -0.297000
v -0.296999 -0.073719 -0.400001
v -0.296999 -0.073719 -0.500001
v -0.296999 -0.026551 -0.500000
v -0.299999 0.008095 -0.500000
v -0.284276 -0.009455 -0.500000
v -0.319498 0.023153 -0.480502
v -0.480501 0.023153 -0.319499
v -0.319498 0.023153 -0.319499
v -0.319498 0.023153 -0.480502
v -0.319498 0.023153 -0.319499
vt 0.971873 0.591685
vt 0.983089 0.620314
vt 0.960656 0.598672
vt 0.983089 0.620314
vt 0.971873 0.591685
vt 0.960656 0.598672
vt 0.913365 0.984486
vt 0.913365 0.614852
vt 0.956308 0.614852
vt 0.983089 0.598672
vt 0.983089 0.984486
vt 0.987850 0.620314
vt 0.956308 0.614852
vt 0.913365 0.614852
vt 0.913365 0.984486
vt 0.983089 0.984486
vt 0.987850 0.620314
vt 0.983089 0.598672
vt 0.594597 0.013643
vt 0.576021 0.379187
vt 0.594595 0.379187
vt 0.669198 0.379188
vt 0.642117 0.013644
vt 0.642115 0.379188
vt 0.618357 0.013643
vt 0.618355 0.379187
vt 0.003988 0.091043
vt 0.188117 0.053897
vt 0.003988 0.053895
vt 0.003988 0.240249
vt 0.188117 0.186086
vt 0.003988 0.186083
vt 0.003988 0.138563
vt 0.188117 0.091046
vt 0.576021 0.377637
vt 0.594597 0.013643
vt 0.594595 0.377637
vt 0.642117 0.013644
vt 0.669198 0.377638
vt 0.642115 0.377637
vt 0.618357 0.013643
vt 0.618355 0.377637
vt 0.988432 0.416168
vt 0.897847 0.010874
vt 0.897847 0.416168
vt 0.988432 0.416168
vt 0.897847 0.010874
vt 0.897847 0.416168
vt 0.988432 0.416168
vt 0.897847 0.010874
vt 0.897847 0.416168
vt 0.988432 0.416168
vt 0.897847 0.010874
vt 0.897847 0.416168
vt 0.003988 0.053895
vt 0.188117 0.091046
vt 0.003988 0.091043
vt 0.188117 0.186086
vt 0.003988 0.240249
vt 0.003988 0.186083
vt 0.003988 0.138563
vt 0.859280 0.481926
vt 0.651184 0.898116
vt 0.651184 0.481926
vt 0.621939 0.431522
vt 0.606852 0.948520
vt 0.606852 0.431521
vt 0.903613 0.948520
vt 0.888525 0.431522
vt 0.903613 0.431522
vt 0.651184 0.898116
vt 0.621939 0.948520
vt 0.859280 0.898116
vt 0.888526 0.948520
vt 0.651184 0.898116
vt 0.884482 0.956607
vt 0.625983 0.956607
vt 0.884482 0.423434
vt 0.651184 0.481926
vt 0.625983 0.423434
vt 0.625983 0.986782
vt 0.884482 0.986782
vt 0.884482 0.393260
vt 0.625983 0.393259
vt 0.576022 0.013643
vt 0.669199 0.013644
vt 0.188116 0.240251
vt 0.188117 0.138566
vt 0.576022 0.013643
vt 0.669199 0.013644
vt 0.988432 0.010874
vt 0.988432 0.010874
vt 0.988432 0.010874
vt 0.988432 0.010874
vt 0.188117 0.053897
vt 0.188116 0.240251
vt 0.188117 0.138566
vt 0.859280 0.898116
vt 0.651184 0.481926
vt 0.859280 0.481926
vt 0.859280 0.898116
vt 0.859280 0.481926
vn -1.0000 0.0000 0.0000
vn 0.0000 0.0000 -1.0000
vn 0.0000 -0.6363 0.7714
vn 0.0000 -0.8808 0.4735
vn 0.0000 -0.5128 0.8585
vn 0.0000 0.9153 0.4028
vn 0.0000 0.6662 0.7458
vn 0.0000 0.5282 0.8491
vn 0.0000 0.0000 1.0000
vn 0.0000 -0.6364 0.7714
vn 0.4735 -0.8808 -0.0000
vn 0.7714 -0.6364 -0.0000
vn 0.8585 -0.5128 -0.0000
vn 0.7458 0.6662 0.0000
vn 0.4028 0.9153 0.0000
vn 0.8491 0.5282 0.0000
vn 1.0000 0.0000 -0.0000
vn 0.0000 1.0000 0.0000
vn -0.9382 0.3462 0.0000
vn 0.9381 0.3463 0.0000
vn -0.5074 0.8617 0.0000
vn -0.9381 0.3462 0.0000
vn 0.5073 0.8617 0.0000
vn 0.0000 0.8617 -0.5074
vn 0.0000 0.3462 -0.9381
vn 0.0000 0.3462 0.9381
vn 0.0000 0.8617 0.5074
vn 0.0000 0.3463 0.9381
vn 0.0000 0.0001 1.0000
usemtl Default_OBJ.009
s 1
f 1/1/1 2/2/1 3/3/1
s 2
f 4/4/2 5/5/2 6/6/2
s 3
f 7/7/1 8/8/1 9/9/1
s 4
f 9/9/1 3/3/1 2/2/1
s 5
f 1/1/1 10/10/1 2/2/1
s 6
f 2/2/1 11/11/1 9/9/1
s 7
f 10/10/1 12/12/1 2/2/1
s 8
f 7/7/1 9/9/1 11/11/1
s 9
f 13/13/2 14/14/2 15/15/2
s 10
f 15/15/2 16/16/2 13/13/2
s 11
f 4/4/2 17/17/2 18/18/2
s 12
f 18/18/2 5/5/2 4/4/2
s 13
f 6/6/2 13/13/2 4/4/2
s 14
f 16/16/2 4/4/2 13/13/2
s 15
f 19/19/3 20/20/4 21/21/5
s 16
f 22/22/6 23/23/7 24/24/8
s 17
f 21/21/5 25/25/9 19/19/3
s 18
f 24/24/8 25/25/9 26/26/9
s 19
f 27/27/10 28/28/4 29/29/4
s 20
f 30/30/6 31/31/7 32/32/7
s 21
f 33/33/9 34/34/10 27/27/10
s 22
f 31/31/7 33/33/9 32/32/7
s 23
f 35/35/11 36/36/12 37/37/13
s 24
f 38/38/14 39/39/15 40/40/16
s 25
f 37/37/13 41/41/17 42/42/17
s 26
f 40/40/16 41/41/17 38/38/14
s 27
f 43/43/9 44/44/9 45/45/9
s 28
f 46/46/9 47/47/9 48/48/9
s 29
f 49/49/17 50/50/17 51/51/17
s 30
f 52/52/17 53/53/17 54/54/17
s 31
f 55/55/11 56/56/12 57/57/12
s 32
f 58/58/14 59/59/15 60/60/14
s 33
f 56/56/12 61/61/17 57/57/12
s 34
f 61/61/17 58/58/14 60/60/14
s 35
f 62/62/18 63/63/18 64/64/18
s 36
f 65/65/19 66/66/1 67/67/1
s 37
f 68/68/17 69/69/20 70/70/17
s 38
f 65/65/19 71/71/21 72/72/22
s 39
f 73/73/23 69/69/20 74/74/20
s 40
f 75/75/24 76/76/25 77/77/25
s 41
f 78/78/26 79/79/27 80/80/28
s 42
f 81/81/2 76/76/25 82/82/2
s 43
f 83/83/9 80/80/28 84/84/29
s 44
f 19/19/3 85/85/4 20/20/4
s 45
f 22/22/6 86/86/6 23/23/7
s 46
f 21/21/5 26/26/9 25/25/9
s 47
f 24/24/8 23/23/7 25/25/9
s 48
f 27/27/10 34/34/10 28/28/4
s 49
f 30/30/6 87/87/6 31/31/7
s 50
f 33/33/9 88/88/9 34/34/10
s 51
f 31/31/7 88/88/9 33/33/9
s 52
f 35/35/11 89/89/11 36/36/12
s 53
f 38/38/14 90/90/15 39/39/15
s 54
f 37/37/13 36/36/12 41/41/17
s 55
f 40/40/16 42/42/17 41/41/17
s 56
f 43/43/9 91/91/9 44/44/9
s 57
f 46/46/9 92/92/9 47/47/9
s 58
f 49/49/17 93/93/17 50/50/17
s 59
f 52/52/17 94/94/17 53/53/17
s 60
f 55/55/11 95/95/11 56/56/12
s 61
f 58/58/14 96/96/15 59/59/15
s 62
f 56/56/12 97/97/17 61/61/17
s 63
f 61/61/17 97/97/17 58/58/14
s 64
f 62/62/18 98/98/18 63/63/18
s 65
f 65/65/19 72/72/22 66/66/1
s 66
f 68/68/17 74/74/20 69/69/20
s 67
f 65/65/19 99/99/21 71/71/21
s 68
f 73/73/23 100/100/23 69/69/20
s 69
f 75/75/24 101/101/24 76/76/25
s 70
f 78/78/26 102/102/27 79/79/27
s 71
f 81/81/2 77/77/25 76/76/25
s 72
f 83/83/9 78/78/26 80/80/28
